<svg width="20" height="20" viewBox="0 0 20 20" fill="none" xmlns="http://www.w3.org/2000/svg">
<g clip-path="url(#clip0)">
<g clip-path="url(#clip1)">
<path d="M11 16C11 16.5523 10.5523 17 10 17C9.44772 17 9 16.5523 9 16C9 15.4477 9.44772 15 10 15C10.5523 15 11 15.4477 11 16Z" fill="white"/>
<path d="M9.62167 0.195312C9.51916 0.356445 9.43715 0.529296 9.43715 0.529296L0.124969 19C0.0568744 19.1344 -3.27835e-08 19.25 -2.73196e-08 19.375C-1.09278e-08 19.75 0.249939 20 0.624848 20L19.3752 20C19.7501 20 20 19.75 20 19.375C20 19.25 19.9463 19.0967 19.8633 18.9355L10.5619 0.529296L10.3588 0.195312C10.2612 0.0537105 10.1225 -4.4247e-07 9.99756 -4.37007e-07C9.87259 -4.31545e-07 9.72419 0.0341793 9.62167 0.195312ZM18.5 19L1.5 18.9355L10 1.5L18.5 19Z" fill="white"/>
<path d="M10.5 13C10.5 13.2761 10.2761 13.5 10 13.5C9.72386 13.5 9.5 13.2761 9.5 13L9.5 7C9.5 6.72386 9.72386 6.5 10 6.5C10.2761 6.5 10.5 6.72386 10.5 7L10.5 13Z" fill="white"/>
</g>
</g>
<defs>
<clipPath id="clip0">
<rect width="20" height="20" fill="white"/>
</clipPath>
<clipPath id="clip1">
<rect width="20" height="20" fill="white" transform="translate(0 20) rotate(-90)"/>
</clipPath>
</defs>
</svg>