<svg width="20" height="20" viewBox="0 0 20 20" fill="none" xmlns="http://www.w3.org/2000/svg">
<path fill-rule="evenodd" clip-rule="evenodd" d="M19 10C19 14.9706 14.9706 19 10 19C5.02944 19 1 14.9706 1 10C1 5.02944 5.02944 1 10 1C14.9706 1 19 5.02944 19 10ZM20 10C20 15.5228 15.5228 20 10 20C4.47715 20 0 15.5228 0 10C0 4.47715 4.47715 0 10 0C15.5228 0 20 4.47715 20 10ZM5.65381 9.3358L9.18925 12.8713L14.8462 7.21448L15.5533 7.92159L9.89636 13.5784L9.18925 14.2856L8.48215 13.5784L4.94671 10.0429L5.65381 9.3358Z" fill="white"/>
</svg>